<svg width="527" height="200" viewBox="0 0 527 200" fill="none" xmlns="http://www.w3.org/2000/svg">
<path d="M195 100C197.761 100 200.013 97.7598 199.875 95.0018C198.973 76.978 193.207 59.4996 183.147 44.443C172.159 27.9981 156.541 15.1808 138.268 7.61205C119.996 0.0432834 99.889 -1.93705 80.4909 1.92147C61.0928 5.77999 43.2746 15.3041 29.2893 29.2893C15.3041 43.2746 5.77999 61.0929 1.92147 80.491C-1.93705 99.8891 0.0432836 119.996 7.61204 138.268C15.1808 156.541 27.998 172.159 44.443 183.147C59.4995 193.207 76.978 198.973 95.0017 199.875C97.7597 200.013 100 197.761 100 195V147.92C100 145.158 97.7538 142.95 95.0111 142.629C88.2885 141.842 81.8221 139.473 76.155 135.686C69.0969 130.97 63.5958 124.267 60.3473 116.425C57.0988 108.582 56.2488 99.9524 57.9049 91.6268C59.561 83.3011 63.6487 75.6536 69.6511 69.6511C75.6535 63.6487 83.3011 59.561 91.6267 57.9049C99.9523 56.2489 108.582 57.0988 116.425 60.3473C124.267 63.5958 130.97 69.0969 135.686 76.1551C139.473 81.8221 141.842 88.2885 142.629 95.0112C142.95 97.7539 145.158 100 147.92 100H195Z" fill="#688E26"/>
<rect x="143.222" y="118.974" width="56.7775" height="81.0256" rx="5" fill="#688E26"/>
<path d="M309.929 115.278C324.244 115.278 340.624 110.084 350.672 92.7255L333.191 80.6974C328.098 88.3516 320.803 92.4521 310.893 92.4521C296.302 92.4521 283.914 82.611 283.914 65.389C283.914 48.4404 296.027 38.3259 310.617 38.3259C320.253 38.3259 328.098 42.4264 333.191 49.9439L350.672 38.0526C340.624 20.6939 324.382 15.5 310.067 15.5C282.4 15.5 259 34.9089 259 65.389C259 95.8692 282.262 115.278 309.929 115.278Z" fill="#688E26"/>
<path d="M387.713 115.278C400.239 115.278 406.984 108.444 407.534 107.214H407.947V113.911H431.76V42.8364H407.947V49.5339H407.534C406.984 48.3037 400.239 41.4696 387.713 41.4696C371.746 41.4696 353.852 53.4977 353.852 78.3738C353.852 103.25 371.746 115.278 387.713 115.278ZM377.252 78.3738C377.252 68.396 384.547 62.382 392.806 62.382C401.34 62.382 408.498 68.2593 408.498 78.3738C408.498 88.4883 401.34 94.3657 392.806 94.3657C384.547 94.3657 377.252 88.3516 377.252 78.3738Z" fill="#688E26"/>
<path d="M475.932 114.731C481.3 114.731 487.769 113.775 490.522 110.768V92.8622C488.045 93.6822 485.429 93.9556 483.777 93.9556C477.033 93.9556 475.106 89.8551 475.106 86.5748V61.4252H490.247V42.8364H475.106V24.6577H451.293V42.8364H440.419V61.4252H451.293V90.1285C451.293 107.897 461.616 114.731 475.932 114.731Z" fill="#688E26"/>
<path d="M499.644 113.911H523.457V42.8364H499.644V113.911ZM499.644 37.2325H523.457V16.8668H499.644V37.2325Z" fill="#688E26"/>
<path d="M357.554 184.5C364.014 184.5 372.236 182.386 377.889 174.367L373.264 171.014C368.933 176.773 362.84 178.45 357.774 178.45C346.542 178.45 337.439 170.358 337.439 157.893C337.439 145.5 346.542 137.336 357.701 137.336C362.766 137.336 368.933 139.012 373.264 144.771L377.889 141.418C372.236 133.399 363.941 131.285 357.554 131.285C342.945 131.285 330.979 142.074 330.979 157.893C330.979 173.711 342.945 184.5 357.554 184.5Z" fill="#688E26"/>
<path d="M400.502 184.5C407.623 184.5 412.982 180.636 414.817 176.627H415.037V183.771H421.204V145.864H415.037V153.008H414.817C412.982 148.999 407.623 145.136 400.502 145.136C391.252 145.136 381.782 151.842 381.782 164.818C381.782 177.793 391.252 184.5 400.502 184.5ZM387.949 164.818C387.949 155.414 394.776 150.749 401.53 150.749C408.43 150.749 415.258 155.487 415.258 164.818C415.258 174.149 408.43 178.887 401.53 178.887C394.776 178.887 387.949 174.221 387.949 164.818Z" fill="#688E26"/>
<path d="M429.858 183.771H436.024V164.745C436.024 156.289 441.237 150.967 448.358 150.967C449.238 150.967 449.826 151.04 450.486 151.186V145.427C449.899 145.208 449.165 145.136 448.284 145.136C441.237 145.136 437.419 149.801 436.024 155.268V145.864H429.858V183.771Z" fill="#688E26"/>
<path d="M493.827 183.771V132.014H487.66V153.008H487.44C485.605 148.999 480.246 145.136 473.125 145.136C463.875 145.136 454.405 151.842 454.405 164.818C454.405 177.793 463.875 184.5 473.125 184.5C480.246 184.5 485.605 180.636 487.44 176.627H487.66V183.771H493.827ZM460.571 164.818C460.571 155.414 467.399 150.749 474.152 150.749C481.053 150.749 487.88 155.487 487.88 164.818C487.88 174.149 481.053 178.887 474.152 178.887C467.399 178.887 460.571 174.221 460.571 164.818Z" fill="#688E26"/>
<path d="M513.713 184.5C520.613 184.5 527 181.001 527 173.493C527 167.223 522.595 164.599 516.576 162.266L513.492 161.027C509.528 159.423 507.986 157.528 507.986 155.122C507.986 151.915 510.629 150.165 513.933 150.165C517.31 150.165 519.585 151.915 520.76 155.05L525.679 153.592C524.357 148.489 519.806 145.136 513.713 145.136C507.106 145.136 501.893 149.072 501.893 155.05C501.893 159.35 504.536 163.068 510.85 165.62L514.3 166.932C518.704 168.754 520.907 170.358 520.907 173.493C520.907 177.648 517.31 179.397 513.713 179.397C509.455 179.397 506.445 176.846 505.417 172.836L500.278 174.221C501.453 180.709 506.592 184.5 513.713 184.5Z" fill="#688E26"/>
</svg>
